<svg xmlns="http://www.w3.org/2000/svg" width="244.306" height="53.512" viewBox="0 0 244.306 53.512">
  <path id="Union_1" data-name="Union 1" d="M64.557,64.353a18.163,18.163,0,0,1-4.667-12.28,17.324,17.324,0,0,1,5.023-12.854,17.528,17.528,0,0,1,12.893-4.983,16.482,16.482,0,0,1,12.281,5.082,17.322,17.322,0,0,1,4.964,12.6A17.454,17.454,0,0,1,90.087,64.65a16.7,16.7,0,0,1-12.439,5.063Q69.223,69.712,64.557,64.353ZM72.19,45.9a8.161,8.161,0,0,0-2.255,5.774,9.2,9.2,0,0,0,2.235,6.249,6.861,6.861,0,0,0,10.66.059,8.567,8.567,0,0,0,2.254-5.913A8.837,8.837,0,0,0,82.83,46.06a6.816,6.816,0,0,0-5.261-2.57A7.11,7.11,0,0,0,72.19,45.9Zm-58.9,18.9L3.226,68.669l4.9-9.061A27.171,27.171,0,0,1,2.7,42.659a25.5,25.5,0,0,1,7.614-18.589,24.828,24.828,0,0,1,18.331-7.713q13.685,0,21.041,11.984L42.25,35.3a16.039,16.039,0,0,0-5.774-6.031A14.237,14.237,0,0,0,18.7,31.9a15.161,15.161,0,0,0-4.489,10.916A15.7,15.7,0,0,0,18.7,54.149,14.5,14.5,0,0,0,29.515,58.8a13.632,13.632,0,0,0,6.625-1.741q3.185-1.74,5.122-6.526h-12.3V40.4H52.929v6.724q0,5.181-3.559,11.134A21.549,21.549,0,0,1,40,66.963a27.233,27.233,0,0,1-11.747,2.75A23.938,23.938,0,0,1,13.292,64.8Zm113.043-.314a19.144,19.144,0,0,1-4.192-12.5,18.508,18.508,0,0,1,4.469-12.479,13.568,13.568,0,0,1,10.6-5.2,10.587,10.587,0,0,1,5.26,1.305,20.72,20.72,0,0,1,4.944,4.153V35.066H157.54V69H147.415V63.186h-.158a17.628,17.628,0,0,1-4.785,4.924,10.981,10.981,0,0,1-5.972,1.523A12.7,12.7,0,0,1,126.335,64.491Zm8.622-17.66a9.039,9.039,0,0,0-2.017,6.032,7.751,7.751,0,0,0,1.919,5.477,6.542,6.542,0,0,0,5.043,2.077,6.658,6.658,0,0,0,5.142-2.393,8.4,8.4,0,0,0,2.136-5.794,7.807,7.807,0,0,0-2.136-5.478,6.673,6.673,0,0,0-5.062-2.313A6.312,6.312,0,0,0,134.957,46.832Zm77.975,15.781q-5.517-6.94-5.518-18.252,0-12.024,5.4-19.282a16.89,16.89,0,0,1,14.218-7.258h.317A17.191,17.191,0,0,1,241.665,24.7q5.339,6.882,5.34,18.391,0,13.447-5.933,19.954t-13.724,6.506A17.543,17.543,0,0,1,212.932,62.612Zm7.574-30.632q-2.492,4.39-2.491,12.221,0,7.119,2.531,11.39t6.645,4.271q4.192,0,6.7-4.271T236.4,44.043q0-7.672-2.452-12.063t-6.605-4.39Q223,27.59,220.505,31.981ZM186.215,69V56.937H163.79V47.6l23.295-29.07h10.2V47.682h4.786v9.255h-4.786V69ZM173.053,47.682h13.163V31.2h-.158ZM104.266,69V16.2h10.125V69Z" transform="translate(-2.699 -16.2)" fill="#000a3c"/>
</svg>
