<svg xmlns="http://www.w3.org/2000/svg" width="406.129" height="416.074" viewBox="0 0 406.129 416.074">
  <g id="Group_1" data-name="Group 1" transform="translate(-670 -165)">
    <g id="Union_1" data-name="Union 1" transform="translate(670 165)" fill="none">
      <path d="M248.65,290.334a158.991,158.991,0,1,1,39.384-38.41l118.094,126.64L365.9,416.074Z" stroke="none"/>
      <path d="M 159.0003051757813 262.9996948242188 C 180.0596313476563 262.9996948242188 200.3231964111328 256.7536926269531 217.6001892089844 244.9370269775391 L 232.7114562988281 234.6015625 L 243.4311828613281 219.7435760498047 C 256.2330932617188 201.9996948242188 262.999755859375 180.9950256347656 262.999755859375 159.0003662109375 C 262.999755859375 101.6543579101563 216.3457489013672 55.00002670288086 159.0003051757813 55.00002670288086 C 101.654296875 55.00002670288086 54.99996566772461 101.6543579101563 54.99996566772461 159.0003662109375 C 54.99996566772461 216.3458099365234 101.654296875 262.9996948242188 159.0003051757813 262.9996948242188 M 365.9040832519531 416.0735778808594 L 248.6499633789063 290.3342590332031 C 223.1264190673828 307.791259765625 192.257080078125 317.9996948242188 159.0003051757813 317.9996948242188 C 71.18640899658203 317.9996948242188 -3.279622251284309e-05 246.8133544921875 -3.279622251284309e-05 159.0003662109375 C -3.279622251284309e-05 71.18636322021484 71.18640899658203 2.642144136189017e-05 159.0003051757813 2.642144136189017e-05 C 246.8132934570313 2.642144136189017e-05 317.999755859375 71.18636322021484 317.999755859375 159.0003662109375 C 317.999755859375 193.6934661865234 306.8924255371094 225.7856903076172 288.0343017578125 251.9237976074219 L 406.1286315917969 378.5643615722656 L 365.9040832519531 416.0735778808594 Z" stroke="none" fill="#919191"/>
    </g>
  </g>
</svg>
